PathFileType	4	(X/Y/Z)	62_1_40_p0_0-426_filt_butterworth.trc
DataRate	CameraRate	NumFrames	NumMarkers	Units	OrigDataRate	OrigDataStartFrame	OrigNumFrames
49.0	49.0	6	27	m	49.0	0	426
Frame#	Time	RHip			RKnee			RAnkle			RBigToe			RSmallToe			RHeel			LHip			LKnee			LAnkle			LBigToe			LSmallToe			LHeel			Neck			Head			Nose			RShoulder			RElbow			RWrist			RThumb			RIndex			RPinky			LShoulder			LElbow			LWrist			LThumb			LIndex			LPinky			
		X1	Y1	Z1	X2	Y2	Z2	X3	Y3	Z3	X4	Y4	Z4	X5	Y5	Z5	X6	Y6	Z6	X7	Y7	Z7	X8	Y8	Z8	X9	Y9	Z9	X10	Y10	Z10	X11	Y11	Z11	X12	Y12	Z12	X13	Y13	Z13	X14	Y14	Z14	X15	Y15	Z15	X16	Y16	Z16	X17	Y17	Z17	X18	Y18	Z18	X19	Y19	Z19	X20	Y20	Z20	X21	Y21	Z21	X22	Y22	Z22	X23	Y23	Z23	X24	Y24	Z24	X25	Y25	Z25	X26	Y26	Z26	X27	Y27	Z27	
0	0.0	0.34204834257213756	0.5063164754817983	0.2839912632322241	0.32685486066929875	0.7515557563401234	0.5881965165470562	0.3276462162120516	0.9778939463555991	0.8569148637773196	0.3126867173875899	0.9089605850640508	0.9469884673576043	0.34616542398892614	0.8788233788067957	0.9398443186326572	0.33454730725653464	1.1001716490624849	0.8645054902053004	0.1262738851935818	0.5461767888201075	0.2515499689786713	0.1462261318839461	0.8084353140253643	0.5589136798429117	0.16196782478306454	1.0794863858828416	0.833013209371887	0.11752461581896784	0.9332249860539522	0.9105970789169184	0.08618976702691741	0.9779940559952477	0.8822278562674775	0.1910086401553368	1.1273250164587598	0.8433106396810404	0.2319377835538611	0.12556917698905798	-0.2046666591000876	0.22359507791994215	-0.05329160892490198	-0.38046869504644354	0.20136087749741677	-0.021761875502754754	-0.23990813538341554	0.37727450839437005	0.14561489637707697	-0.1102266829931995	0.4310287304865465	0.27440489438263366	0.1353671085685701	0.2883478654216831	0.3391887044190629	0.31332077759329013	0.20027022446566578	0.3893254891304634	0.34858846037702407	0.1846404342984299	0.40409144251028345	0.3617159834209853	0.1903226488494453	0.4110161552191374	0.355554471041247	0.06567054368026791	0.20508893788704896	-0.1625717528410923	0.039831743292595555	0.35208078386510566	0.0711822682212697	0.11649603189705122	0.33212969061023345	0.2923985670072786	0.18868349426378636	0.3293213219811789	0.33744365188143	0.1949389059202153	0.35895758674210787	0.372130309078118	0.195191315718135	0.40395824587094864	0.36331602509302424
1	0.0204081632653061	0.34394922040518777	0.5086281830086596	0.2859676268772692	0.3271085407177122	0.7557833532510522	0.5923082592093005	0.3318894520344668	0.9904647540079651	0.8583603141355016	0.3043890368253089	0.9104901972671738	0.944032147704547	0.3463960197354808	0.8788884899859573	0.9392710436460421	0.33382340463373883	1.0852236730925318	0.8661692391685116	0.1274507856475189	0.5365198323029655	0.2550551416732609	0.14617036488954377	0.8081414303153772	0.5590012993096433	0.16210581152297415	1.0795404168119078	0.8330538402935903	0.12216735188175888	0.9379860482443229	0.9114825067021989	0.09017979861582676	0.9882640468253123	0.8810022742120754	0.19112641610012954	1.126332946184424	0.840186024107372	0.231937931359938	0.12554637841935712	-0.20472086609131154	0.22370452971464333	-0.05316624127112111	-0.38054437433222	0.19798316016986406	-0.03143711332842569	-0.2336072569999626	0.37869980824023686	0.145852329984923	-0.11037120895158792	0.4356623646425061	0.2824843970550753	0.1348337577910958	0.2923339938423719	0.350255770981183	0.3093618176591546	0.20050982033897036	0.3891558720197309	0.34868954285946924	0.18677198518707244	0.407602225957825	0.36081523117174724	0.1932224140814306	0.41135803970452955	0.355955249943431	0.06580144146351748	0.20440421957581603	-0.16373928826263867	0.03684553955293286	0.35113304170801163	0.07148246174094879	0.12068181415228683	0.33356373024686015	0.2928956158694058	0.18781725539794544	0.33896110850290156	0.3338669726493757	0.19695481894512867	0.3657084322409934	0.36674900279384753	0.1982192646989083	0.40407122992906613	0.36278196611971025
2	0.0408163265306122	0.3448814993428415	0.5089771051458676	0.2862630150855412	0.3272132551549794	0.7579737333946269	0.5945343451496612	0.334270331588077	0.9964440283161686	0.8600561942393279	0.3006445023967278	0.9121093525940459	0.943222520580554	0.3465592666330123	0.8789648933324358	0.9388686572303833	0.3334854647392569	1.0835452804853316	0.8670447840983047	0.12757169355745016	0.5352573893376933	0.25558941698441434	0.14614217723004747	0.8080214879052381	0.5590691007289631	0.1621849488837934	1.0796190478869063	0.8331024427889614	0.12329466931427531	0.9331180610813867	0.9125870229486532	0.09201399992128108	0.9937614251273467	0.880896735372939	0.1912122200954959	1.1258962195871522	0.8385761930131939	0.23193756945805571	0.1255241946638919	-0.20475456972988426	0.22501443894153247	-0.05124566214515714	-0.3819589170865668	0.19602146136332685	-0.033920537770078044	-0.23202711505271023	0.37924570454035167	0.14588688849318454	-0.11039443675835525	0.4379899890505543	0.28624422074310446	0.1345576964042168	0.29425845083804236	0.3586232156356931	0.30631335233564516	0.20068657040885257	0.38904147601831035	0.3486761969471699	0.18762029752532275	0.4090850370121181	0.36040715888936803	0.19468847829161048	0.4116016082867634	0.35619539236130604	0.06590290741807409	0.2039024955801414	-0.16462603223661243	0.035340108269428905	0.350646481468169	0.07165880147694889	0.12393636495830024	0.3345283004479299	0.29435449452685963	0.18745816465261889	0.3438863283088563	0.3319512850734249	0.19799634373878375	0.3701081279518394	0.36344429751561835	0.19980342420332414	0.404133239878903	0.3624488797333808
3	0.0612244897959183	0.3451282496049378	0.5077350502067327	0.28518918387074604	0.32719597398861283	0.7584453359743863	0.5953622970385202	0.3342496104214835	0.9946259912657202	0.8619949574141448	0.30077973845232836	0.9132819881784947	0.9438014875393335	0.3466447169947855	0.879043225159381	0.9386427262466956	0.33344613322713346	1.0911398981865166	0.8671767911034984	0.1267808328993205	0.5408296630703756	0.2536517136384001	0.14614825901201975	0.8080626302115591	0.5591107132513116	0.16220750696250777	1.0797174626793065	0.8331620289549577	0.12123783817045378	0.9225470460138444	0.9131429933110763	0.09205545276259117	0.994521250704511	0.8812463562037985	0.191250457993561	1.12591992947945	0.8383542931665435	0.2319410208886315	0.12551206853266303	-0.20477069757475252	0.22712101799957224	-0.04814527490231967	-0.38425761058884217	0.19550595220602004	-0.031609422039356086	-0.23359936182930596	0.37897451924944214	0.14573959900082206	-0.11030023932368614	0.438194375297023	0.28631225936373583	0.13453110632025236	0.2944041372278797	0.36254643080536647	0.3048555162328594	0.20072644642501417	0.38902548968181483	0.34847108985413316	0.18670833026792596	0.4076417530087172	0.36081301534551924	0.19485371188683615	0.41172715389714815	0.356297764295462	0.06592829369127841	0.2038969833263053	-0.16475436489396916	0.035188568492847835	0.3505884393866505	0.07170312411149526	0.12585528854390224	0.3344885161691056	0.29673258511699374	0.18749424523357205	0.34451749460678466	0.33162664555516314	0.19790759110250047	0.37474162193258387	0.36254404507327065	0.20007096026817792	0.40419350922191194	0.3623332714217989
4	0.0816326530612244	0.3457529654734174	0.5066246700406114	0.2841649165415625	0.327160024617209	0.7583673258579335	0.5956928670484215	0.33222375594330034	0.9890170156968557	0.8634183147823247	0.301683767680806	0.9137473641748517	0.9441872414730177	0.34667977358031704	0.8790838891273958	0.9385289490864722	0.333493377500861	1.095212852768721	0.8667906086265791	0.1260147594116686	0.5458860719891463	0.2515754680919913	0.14615916762034495	0.8081103472234723	0.5591246530886473	0.16220585464211318	1.0797765623570068	0.8332134622314766	0.11904189381340322	0.9156199185037446	0.9129591009459742	0.09181491302499298	0.9933427916842951	0.8809702809926243	0.19125407843813066	1.126015581402906	0.8385380118798236	0.23195240823901955	0.12551273295834042	-0.20477973331074417	0.22858975017370547	-0.0460059760553593	-0.38584048229323203	0.1956846654174079	-0.03069816713346026	-0.23425591546318342	0.37894900339884235	0.14570727984197965	-0.11026310732739801	0.43780443536132835	0.28572641032061286	0.13458604058163792	0.29359962904737513	0.36218505903681486	0.30498026087772223	0.20062233772798446	0.3892127047405499	0.34834526695294976	0.18530183640410894	0.40528692027273694	0.3615247279877664	0.19464318438729797	0.4117828565044632	0.35632729274832853	0.06591329968005262	0.20410503163482027	-0.1645642723670548	0.035423091903825046	0.35063124865733314	0.07169421255037853	0.1262680169741592	0.33368433701598793	0.29842430785089574	0.18750719734132776	0.3440037109095583	0.3321026817898856	0.19721984020813282	0.3807391232106948	0.36265213948291447	0.19998632649953024	0.404345331577424	0.3623268477166297
5	0.1020408163265306	0.3467428764593501	0.5063930280155742	0.28381822217767977	0.3271600697893431	0.7582292357547613	0.5956779758955769	0.3294271081696962	0.984453526431543	0.8634763535935164	0.3018203175783123	0.9135734803295985	0.9440968095241207	0.3467158061391387	0.8790963837305134	0.9384653050073481	0.333665844702377	1.0929711611670074	0.8659427510800084	0.1260538259686737	0.5472049538522138	0.2503896013095854	0.14611557204316122	0.808075289009527	0.5590949950854004	0.16219662688438213	1.0797449912093338	0.8332289110941447	0.1183508198852482	0.9144233190518176	0.9126588755524816	0.09185010798280502	0.99227526279465	0.880292363051427	0.1912464868041835	1.1260137255843394	0.8386062459974435	0.231968975013632	0.12551564890411673	-0.2047818967248412	0.2289224875002547	-0.04555170240549014	-0.3861530103569174	0.19612298055353827	-0.03350446601169832	-0.2324620712024755	0.37908090019087615	0.14601295991062524	-0.11043641547465474	0.4376468970266591	0.28573849507638904	0.13464031581642866	0.29168753820132864	0.3587666275703313	0.3062001774562387	0.20049520385710395	0.3899416190133342	0.34907733115755357	0.1847030715708416	0.4042097415365762	0.36192125829878075	0.1945322530647791	0.41182489482580265	0.35625778310448236	0.06591942208464976	0.2039829408325562	-0.16488113806343038	0.03552853701649829	0.35060101379946323	0.0716868334331452	0.12497701404409661	0.3330129279597682	0.2975047974246375	0.18733904355837844	0.34409569319562555	0.3332028668785905	0.19661698599698657	0.3850277630039868	0.3627623853083414	0.19999550168487323	0.40460075448811195	0.3623754239339795
